<?xml version="1.0" encoding="UTF-8" standalone="no"?>
<svg
   xmlns:dc="http://purl.org/dc/elements/1.1/"
   xmlns:cc="http://creativecommons.org/ns#"
   xmlns:rdf="http://www.w3.org/1999/02/22-rdf-syntax-ns#"
   xmlns:svg="http://www.w3.org/2000/svg"
   xmlns="http://www.w3.org/2000/svg"
   xmlns:sodipodi="http://sodipodi.sourceforge.net/DTD/sodipodi-0.dtd"
   xmlns:inkscape="http://www.inkscape.org/namespaces/inkscape"
   width="100mm"
   height="100mm"
   viewBox="0 0 100 100"
   version="1.1"
   id="svg844"
   inkscape:version="0.92.2 (5c3e80d, 2017-08-06)"
   sodipodi:docname="rotary-pink.svg">
  <metadata
     id="metadata11">
    <rdf:RDF>
      <cc:Work
         rdf:about="">
        <dc:format>image/svg+xml</dc:format>
        <dc:type
           rdf:resource="http://purl.org/dc/dcmitype/StillImage" />
        <dc:title></dc:title>
      </cc:Work>
    </rdf:RDF>
  </metadata>
  <defs
     id="defs9" />
  <sodipodi:namedview
     pagecolor="#ffffff"
     bordercolor="#666666"
     borderopacity="1"
     objecttolerance="10"
     gridtolerance="10"
     guidetolerance="10"
     inkscape:pageopacity="0"
     inkscape:pageshadow="2"
     inkscape:window-width="1920"
     inkscape:window-height="1017"
     id="namedview7"
     showgrid="false"
     inkscape:zoom="0.87490332"
     inkscape:cx="-10.72001"
     inkscape:cy="188.97638"
     inkscape:window-x="-8"
     inkscape:window-y="-8"
     inkscape:window-maximized="1"
     inkscape:current-layer="layer1" />
  <g
     inkscape:label="Calque 1"
     inkscape:groupmode="layer"
     id="layer1"
     transform="translate(0,-197)">
    <g
       transform="matrix(0.89073267,0,0,0.89073267,-155.37615,199.49422)"
       id="g1445"
       style="fill:#d60f67;fill-opacity:1">
      <path
         inkscape:connector-curvature="0"
         d="m 230.59599,92.98387 c -22.02533,0 -39.95466,-17.928666 -39.95466,-39.966665 0,-22.035466 17.92933,-39.960933 39.95466,-39.960933 22.03734,0 39.96,17.925467 39.96,39.960933 0,22.037999 -17.92266,39.966665 -39.96,39.966665 z m 53.20667,-41.305199 -0.0107,-0.15 -0.11466,-0.06613 c -2.26134,-1.371333 -5.228,-2.143733 -8.128,-2.206267 -0.0573,-0.384933 -0.42267,-3.101599 -0.46667,-3.488533 2.77333,-0.785466 5.43067,-2.291733 7.29333,-4.219866 l 0.0973,-0.0896 -0.028,-0.147867 c -0.13734,-1.033333 -0.53067,-2.473467 -0.88667,-3.3468 l -0.06,-0.1308 -0.14,-0.03547 c -2.55067,-0.728 -5.60533,-0.709333 -8.41067,0 -0.13333,-0.359866 -1.17066,-2.864 -1.31866,-3.215066 2.46933,-1.5068 4.63733,-3.6416 5.93866,-5.9552 l 0.0707,-0.111467 -0.052,-0.1448 c -0.37333,-0.889066 -1.12667,-2.1792 -1.72667,-2.9948 l -0.0813,-0.112 h -0.15333 c -2.62534,-0.0572 -5.55734,0.747467 -8.14134,2.138667 -0.22666,-0.316267 -1.90933,-2.506267 -2.13866,-2.811467 2.01466,-2.076133 3.552,-4.708399 4.212,-7.282933 l 0.0387,-0.144666 -0.0987,-0.108934 c -0.6,-0.790666 -1.64534,-1.852 -2.43067,-2.471866 l -0.108,-0.0812 -0.148,0.02187 c -2.58,0.654134 -5.2,2.1984 -7.28267,4.200534 -0.31866,-0.243334 -2.50133,-1.9532 -2.81733,-2.21 1.39067,-2.454134 2.20533,-5.294267 2.20533,-7.9129335 0,-0.073467 -0.0133,-0.3537334 -0.0133,-0.3537334 l -0.11067,-0.0848 c -0.80533,-0.6328 -2.08133,-1.3635999 -3.008,-1.7401333 l -0.12666,-0.0464 -0.11734,0.062533 c -2.31733,1.2879999 -4.44,3.4426666 -5.93066,5.9109332 -0.37334,-0.144266 -3.02934,-1.2604 -3.37867,-1.412533 0.34933,-1.391067 0.56667,-2.8238669 0.56667,-4.2552002 0,-1.4405333 -0.17334,-2.8593333 -0.56667,-4.1431999 l -0.0333,-0.1333334 -0.14267,-0.0552 c -0.876,-0.3759999 -2.27867,-0.7609333 -3.316,-0.9103999 l -0.15467,-0.024533 -0.092,0.1 c -1.916,1.8578666 -3.42,4.5037332 -4.21466,7.2807998 -0.396,-0.066133 -3.14267,-0.4067999 -3.56,-0.4499999 -0.0373,-2.8776 -0.812,-5.8239999 -2.18134,-8.11466651 l -0.068,-0.13066666 -0.14533,-0.0062667 c -0.99067,-0.12546666 -2.492,-0.12546666 -3.46133,0 l -0.15467,0.0062667 -0.068,0.13066666 c -1.35867,2.26613331 -2.12533,5.21146651 -2.17467,8.10573311 -0.4,0.052133 -3.18933,0.3928 -3.59333,0.4589333 -0.79867,-2.7906666 -2.30667,-5.4479998 -4.21333,-7.2963998 l -0.10667,-0.1073333 -0.156,0.022933 c -1.02667,0.1526667 -2.448,0.5344 -3.32533,0.8912 l -0.132,0.057333 -0.052,0.1337334 c -0.36134,1.3042666 -0.55334,2.7411999 -0.55334,4.1953332 0,1.4042666 0.224,2.8479999 0.55334,4.2245331 -0.34934,0.150533 -3.02934,1.3036 -3.38934,1.448933 -1.50266,-2.4713328 -3.63066,-4.6395995 -5.94133,-5.9437328 l -0.12533,-0.073467 -0.14534,0.048933 c -0.888,0.3896 -2.17333,1.1318666 -2.98666,1.7428 l -0.12667,0.077067 c 0,0 0,0.3098667 0,0.3833334 0,2.5910664 0.80267,5.4415994 2.18133,7.9129334 -0.3,0.249066 -2.316,1.8256 -2.61866,2.0704 -2.076,-2.0068 -4.70267,-3.551067 -7.29333,-4.221867 l -0.132,-0.02707 -0.1,0.0948 c -0.79467,0.5952 -1.864,1.642667 -2.47334,2.4364 l -0.0907,0.114 0.0333,0.139067 c 0.648,2.5724 2.192,5.2048 4.19467,7.2996 -0.21867,0.307733 -1.97467,2.593733 -2.21867,2.909866 -2.512,-1.404666 -5.43733,-2.233333 -8.11733,-2.195866 l -0.13467,0.0063 -0.088,0.1192 c -0.58667,0.780267 -1.328,2.040134 -1.73467,3 l -0.0573,0.126134 0.0707,0.130666 c 1.28533,2.304667 3.45866,4.4568 5.94,5.963067 -0.13467,0.354133 -1.152,2.833866 -1.308,3.193733 -2.852,-0.7068 -5.892,-0.715067 -8.42934,0.02453 l -0.136,0.03533 -0.0507,0.1224 c -0.37334,0.889066 -0.76134,2.2912 -0.90934,3.347466 l -0.0173,0.144267 0.10133,0.111867 c 1.852,1.903733 4.51067,3.409466 7.288,4.1808 -0.0573,0.3932 -0.41733,3.136399 -0.46533,3.513599 -2.888,0.05467 -5.86,0.8176 -8.128,2.179067 l -0.12533,0.07133 -0.0133,0.147467 c -0.0573,0.4964 -0.0947,1.114533 -0.0947,1.7396 0,0.619733 0.0373,1.232267 0.0947,1.727067 l 0.0133,0.1416 0.12533,0.0652 c 2.268,1.357733 5.21467,2.135333 8.12,2.178133 0.056,0.397333 0.444,3.215066 0.49333,3.602 -2.78533,0.8172 -5.42266,2.3412 -7.27466,4.2432 l -0.1,0.118266 0.012,0.128134 c 0.16266,1.041733 0.544,2.476533 0.90266,3.340666 l 0.0573,0.1292 0.132,0.0432 c 2.57066,0.733867 5.61066,0.702534 8.43333,0 0.144,0.3568 1.236,2.852 1.38533,3.212 -2.46933,1.4796 -4.63333,3.6192 -5.94133,5.933333 l -0.0613,0.129067 0.048,0.1324 c 0.37866,0.907733 1.136,2.1932 1.73866,2.9952 l 0.0907,0.114667 0.12933,0.0052 c 2.65334,0.03747 5.584,-0.748 8.12934,-2.152667 0.23733,0.298533 1.95733,2.538 2.18266,2.843733 -1.99733,2.044267 -3.54933,4.665733 -4.20933,7.276667 l -0.036,0.133333 0.0853,0.114533 c 0.61067,0.7812 1.66534,1.827067 2.44267,2.459867 l 0.11467,0.098 0.13733,-0.04587 c 2.57467,-0.640666 5.19067,-2.174533 7.29333,-4.187466 0.31867,0.245733 2.544,1.9588 2.872,2.202 -1.36933,2.514133 -2.168,5.38128 -2.168,7.991173 0,0.05417 0,0.29272 0,0.29272 l 0.13067,0.09791 c 0.77466,0.589066 2.03733,1.309373 2.98133,1.733852 l 0.13067,0.0469 0.136,-0.0667 c 2.32,-1.294262 4.46266,-3.465622 5.96533,-5.967702 0.34933,0.142706 2.792,1.134373 3.15067,1.27708 -0.34934,1.37812 -0.54934,2.79844 -0.54934,4.19844 0,1.468222 0.19067,2.903632 0.564,4.194262 l 0.0333,0.13647 0.14266,0.0526 c 0.87867,0.37552 2.29334,0.76041 3.33067,0.9276 l 0.15467,0.0214 0.1,-0.11511 c 1.92133,-1.86771 3.42133,-4.52448 4.172,-7.274476 0.404,0.06563 3.21466,0.463547 3.60666,0.505214 0.0573,2.902592 0.83734,5.855712 2.19734,8.106762 l 0.06,0.12396 0.156,0.0177 c 0.99866,0.1276 2.48266,0.1276 3.46,0 l 0.14266,-0.0177 0.0707,-0.12396 c 1.35067,-2.25105 2.12533,-5.20834 2.19867,-8.123429 0.392,-0.05417 3.02533,-0.42292 3.41866,-0.488547 0.776,2.796876 2.28667,5.429686 4.208,7.295306 l 0.10534,0.0943 0.128,-0.0109 c 1.04933,-0.16561 2.472,-0.53437 3.35466,-0.89427 l 0.12667,-0.063 0.044,-0.12917 c 0.37333,-1.30052 0.54267,-2.72708 0.54267,-4.191666 0,-1.417706 -0.19867,-2.863546 -0.54267,-4.25468 0.36133,-0.136466 2.91467,-1.241666 3.272,-1.401573 1.504,2.479173 3.64133,4.65104 5.94667,5.953129 l 0.11466,0.0573 0.136,-0.0505 c 0.91734,-0.378126 2.21334,-1.124472 3.00934,-1.746872 L 258.8,98.407458 c 0,0 0.009,-0.306253 0.009,-0.391147 0,-2.555213 -0.80934,-5.40788 -2.15334,-7.90788 0.30134,-0.238533 2.41067,-1.878 2.71067,-2.119733 2.10667,2.000533 4.732,3.5396 7.30667,4.205733 l 0.13733,0.03747 0.10533,-0.09787 c 0.78534,-0.616666 1.85467,-1.673466 2.46667,-2.438533 l 0.0947,-0.1256 -0.048,-0.125467 c -0.64,-2.569333 -2.172,-5.198933 -4.18,-7.298399 0.23333,-0.308934 1.93466,-2.544267 2.164,-2.861467 2.54933,1.404133 5.48,2.207733 8.11733,2.1516 h 0.14533 l 0.0867,-0.1068 c 0.62933,-0.804667 1.35733,-2.0636 1.736,-3.0156 l 0.0587,-0.1204 -0.0693,-0.127067 c -1.25866,-2.2656 -3.41466,-4.4224 -5.884,-5.975466 0.14267,-0.354267 1.152,-2.817733 1.30134,-3.171333 2.8,0.720266 5.84,0.744666 8.39733,0 l 0.124,-0.0428 0.0573,-0.127067 c 0.37467,-0.9016 0.756,-2.298933 0.916,-3.335467 l 0.0147,-0.144666 -0.10667,-0.109467 c -1.85333,-1.921867 -4.49466,-3.410933 -7.25066,-4.2 0.06,-0.3844 0.43466,-3.026533 0.47333,-3.416133 2.91867,-0.05053 5.88533,-0.828133 8.14667,-2.192133 l 0.11466,-0.0724 0.0107,-0.1532 c 0.068,-0.480134 0.0933,-1.1104 0.0933,-1.729067 0,-0.6224 -0.0253,-1.233333 -0.0933,-1.718267"
         style="fill-opacity:1;fill-rule:nonzero;stroke:none;stroke-width:0.13333333;fill:#d60f67"
         fill="#555555"
         class="rotary"
         id="outside" />
      <path
         inkscape:connector-curvature="0"
         d="m 258.56666,42.243205 c 0.39867,0.133867 0.556,0.5756 0.67867,1.009467 2.07733,6.985333 2.07733,12.960933 0,20.001466 -0.168,0.6052 -0.412,0.938 -0.73467,1.069333 -0.46133,0.1416 -0.97067,-0.190667 -1.396,-0.5052 l -13.60267,-9.231866 c -0.52266,-0.348934 -0.83066,-0.8244 -0.83066,-1.332267 0,-0.500533 0.3,-0.975467 0.83066,-1.339067 l 13.60267,-9.218666 c 0.61333,-0.442267 1.09333,-0.581333 1.452,-0.4532 z m -4.98533,30.794266 c -5.03867,5.3052 -10.19867,8.291733 -17.30134,9.993733 -0.60266,0.152133 -1.01866,0.104267 -1.276,-0.109333 -0.37333,-0.312534 -0.324,-0.935467 -0.28666,-1.472934 l 1.17733,-16.393733 c 0.0747,-0.636933 0.32667,-1.1192 0.77467,-1.3864 0.436,-0.235466 0.99466,-0.215733 1.54533,0.0484 l 14.79333,7.163067 c 0.69067,0.340533 1.06,0.676533 1.132,1.044267 0.072,0.411866 -0.22933,0.7744 -0.55866,1.112933 z m -23.01067,-10.3432 c -5.29867,0 -9.60533,-4.306266 -9.60533,-9.600533 0,-3.232267 1.612,-6.2328 4.32,-8.0192 0.89066,-0.596933 2.09466,-0.3412 2.684,0.545734 0.588,0.8948 0.34933,2.100533 -0.54667,2.689066 -1.61733,1.064133 -2.576,2.850533 -2.576,4.7844 0,3.152667 2.57067,5.725067 5.724,5.725067 3.16,0 5.728,-2.5724 5.728,-5.725067 0,-1.933867 -0.95867,-3.728667 -2.58,-4.7896 -0.892,-0.592133 -1.13467,-1.7948 -0.54133,-2.686933 0.58533,-0.886533 1.79333,-1.1396 2.68133,-0.550533 2.7,1.789599 4.32,4.786933 4.32,8.027066 0,5.294267 -4.31067,9.600533 -9.608,9.600533 z m -4.216,20.4656 c -0.32667,0.264666 -0.77867,0.184933 -1.22667,0.0704 -7.06266,-1.684934 -12.25466,-4.674 -17.304,-10.001067 -0.368,-0.381866 -0.54266,-0.7172 -0.54266,-1.0188 0,-0.05413 0,-0.08747 0.009,-0.1468 0.0693,-0.466266 0.64,-0.7396 1.116,-0.969866 l 14.79067,-7.1776 c 0.57733,-0.2692 1.13466,-0.283334 1.57066,-0.026 0.42667,0.252533 0.69334,0.733333 0.74267,1.3572 l 1.19733,16.417733 c 0.0467,0.779733 -0.068,1.2568 -0.35333,1.4948 z M 204.05199,63.922938 c -0.64,0.438533 -1.116,0.5964 -1.47866,0.466133 -0.40267,-0.139067 -0.53734,-0.581733 -0.664,-1.017733 -2.092,-6.977067 -2.092,-12.961467 -0.0253,-19.9984 0.17867,-0.6032 0.432,-0.935466 0.75334,-1.052666 0.47333,-0.169734 0.96933,0.177066 1.41466,0.4824 l 13.588,9.244266 c 0.51334,0.339467 0.812,0.814533 0.812,1.328 0,0.493333 -0.29866,0.9688 -0.792,1.327733 z m 3.51067,-30.366666 h 0.009 c 5.05867,-5.314133 10.23734,-8.310933 17.30267,-10.004667 0.436,-0.09893 0.90267,-0.1828 1.21333,0.09573 0.3,0.233866 0.40534,0.714666 0.34934,1.502133 l -1.196,16.382266 c -0.0373,0.630267 -0.29867,1.126534 -0.74134,1.3688 -0.43066,0.259334 -0.99333,0.245867 -1.55466,-0.03227 l -14.78134,-7.157867 c -0.484,-0.2396 -1.04666,-0.4932 -1.14533,-0.9812 -0.0467,-0.335467 0.11733,-0.728667 0.544,-1.172933 z m 27.45733,-10.042667 c 0.33867,-0.2756 0.78667,-0.188133 1.23067,-0.09587 7.06267,1.7104 12.24933,4.694266 17.312,10.012933 0.35867,0.3792 0.552,0.733866 0.552,1.048 0,0.0296 -0.009,0.07867 -0.009,0.1244 -0.108,0.486 -0.64934,0.742266 -1.13334,0.974533 l -14.78933,7.162533 c -0.584,0.275467 -1.12933,0.302534 -1.55467,0.03747 -0.43466,-0.25 -0.708,-0.736 -0.756,-1.371867 l -1.192,-16.384399 c -0.0493,-0.782267 0.0573,-1.265067 0.34,-1.507734 z m -4.424,-5.651599 c -19.376,0 -35.14666,15.773466 -35.14666,35.155199 0,19.390666 15.77066,35.159865 35.14666,35.159865 19.38267,0 35.15867,-15.769199 35.15867,-35.159865 0,-19.381733 -15.776,-35.155199 -35.15867,-35.155199"
         style="fill-opacity:1;fill-rule:nonzero;stroke:none;stroke-width:0.13333333;fill:#d60f67"
         fill="#aaaaaa"
         class="rotary"
         id="inside" />
    </g>
  </g>
</svg>
